<svg xmlns="http://www.w3.org/2000/svg" width="28" height="28" viewBox="0 0 24 24" fill="rgba(45, 212, 191, 0.2)" stroke="#2dd4bf" stroke-width="2" stroke-linecap="round" stroke-linejoin="round" style="filter: drop-shadow(0px 2px 4px rgba(0,0,0,0.5));">
  <path d="M18 11V6a2 2 0 0 0-2-2v0a2 2 0 0 0-2 2v0"/>
  <path d="M14 10V4a2 2 0 0 0-2-2v0a2 2 0 0 0-2 2v0"/>
  <path d="M10 10.5V5a2 2 0 0 0-2-2v0a2 2 0 0 0-2 2v0"/>
  <path d="M15 22H9c-3.1 0-5.8-2-6.7-5L1 14l2.5-1.5a2.5 2.5 0 0 1 3.5 1l1 1.5"/>
  <path d="M21 15v3a4 4 0 0 1-4 4h-2"/>
  <path d="M18 15V9a2 2 0 0 0-2-2v0a2 2 0 0 0-2 2v0"/>
</svg>
